<svg viewBox="0 0 354 236" fill="none" xmlns="http://www.w3.org/2000/svg">
<g clip-path="url(#clip0_2562_59949)">
<path d="M290.642 54.9076H81.8871C75.8218 54.9076 70.9049 59.8175 70.9049 65.8743V188.735C70.9049 194.792 75.8218 199.702 81.8871 199.702H290.642C296.708 199.702 301.625 194.792 301.625 188.735V65.8743C301.625 59.8175 296.708 54.9076 290.642 54.9076Z" fill="white" stroke="#E1E4E5" stroke-width="4"/>
<path d="M268.653 65.5522H252.664C250.154 65.5522 248.119 67.5843 248.119 70.0911C248.119 72.5978 250.154 74.6299 252.664 74.6299H268.653C271.164 74.6299 273.199 72.5978 273.199 70.0911C273.199 67.5843 271.164 65.5522 268.653 65.5522Z" fill="white" stroke="#E1E4E5" stroke-width="4"/>
<path d="M234.898 65.5522H218.909C216.399 65.5522 214.364 67.5843 214.364 70.0911C214.364 72.5978 216.399 74.6299 218.909 74.6299H234.898C237.409 74.6299 239.444 72.5978 239.444 70.0911C239.444 67.5843 237.409 65.5522 234.898 65.5522Z" fill="white" stroke="#E1E4E5" stroke-width="4"/>
<path d="M205.689 70.0911C205.689 67.5843 203.654 65.5522 201.143 65.5522C198.633 65.5522 196.598 67.5843 196.598 70.0911C196.598 72.5978 198.633 74.6299 201.143 74.6299C203.654 74.6299 205.689 72.5978 205.689 70.0911Z" fill="white" stroke="#E1E4E5" stroke-width="4"/>
<path d="M99.7419 149.848H130.75V161.188H143.81V149.848H151.822V138.918H143.81V96.6765H126.712L99.7419 139.107V149.848ZM131.002 138.918H113.495V138.414L130.498 111.545H131.002V138.918ZM186.252 162.606C202.498 162.606 212.308 150.258 212.34 128.995C212.371 107.891 202.435 95.7944 186.252 95.7944C170.039 95.7944 160.197 107.859 160.165 128.995C160.102 150.195 169.976 162.574 186.252 162.606ZM186.252 151.297C178.84 151.297 174.045 143.863 174.076 128.995C174.108 114.348 178.871 106.977 186.252 106.977C193.602 106.977 198.397 114.348 198.397 128.995C198.429 143.863 193.634 151.297 186.252 151.297ZM221.101 149.848H252.11V161.188H265.169V149.848H273.181V138.918H265.169V96.6765H248.072L221.101 139.107V149.848ZM252.362 138.918H234.855V138.414L251.857 111.545H252.362V138.918Z" fill="#E1E4E5"/>
<path d="M92.8756 69.2041C92.8756 67.1873 91.2383 65.5522 89.2186 65.5522C87.1988 65.5522 85.5615 67.1873 85.5615 69.2041C85.5615 71.221 87.1988 72.856 89.2186 72.856C91.2383 72.856 92.8756 71.221 92.8756 69.2041Z" fill="white" stroke="#E1E4E5" stroke-width="4"/>
<path d="M73.9121 152.354C76.4753 152.354 78.5533 154.429 78.5533 156.988C78.5533 159.548 76.4753 161.623 73.9121 161.623C71.3488 161.623 69.2709 159.548 69.2709 156.988C69.2709 154.429 71.3488 152.354 73.9121 152.354Z" fill="#008DFF"/>
<path d="M305.208 102.316C302.1 104.109 298.125 103.045 296.33 99.9412C294.536 96.8373 295.601 92.8683 298.709 91.0763C301.817 89.2843 305.792 90.3477 307.587 93.4516C309.381 96.5555 308.316 100.524 305.208 102.316Z" fill="#008DFF"/>
<path d="M183.779 74.8858C181.104 74.8858 178.936 72.7203 178.936 70.0491C178.936 67.3779 181.104 65.2124 183.779 65.2124C186.454 65.2124 188.623 67.3779 188.623 70.0491C188.623 72.7203 186.454 74.8858 183.779 74.8858Z" fill="#E1E4E5"/>
<path d="M125.867 58.5716C129.427 58.5716 132.313 55.6896 132.313 52.1345C132.313 48.5795 129.427 45.6975 125.867 45.6975C122.307 45.6975 119.42 48.5795 119.42 52.1345C119.42 55.6896 122.307 58.5716 125.867 58.5716Z" fill="#008DFF"/>
<path d="M218.021 168.995C215.077 168.995 212.691 171.378 212.691 174.317C212.691 177.257 215.077 179.64 218.021 179.64C220.964 179.64 223.351 177.257 223.351 174.317C223.351 171.378 220.964 168.995 218.021 168.995Z" fill="#008DFF"/>
<path d="M119.434 189.423C116.729 189.423 114.535 187.233 114.535 184.532C114.535 181.83 116.729 179.64 119.434 179.64C122.14 179.64 124.333 181.83 124.333 184.532C124.333 187.233 122.14 189.423 119.434 189.423Z" fill="#E1E4E5"/>
<path d="M168.465 166.393C170.221 167.405 170.822 169.648 169.809 171.401C168.795 173.154 166.55 173.755 164.794 172.743C163.038 171.73 162.436 169.488 163.45 167.735C164.464 165.982 166.709 165.381 168.465 166.393Z" fill="#E1E4E5"/>
<path d="M289.54 64.5288L282.863 71.1967C282.619 71.4396 282.619 71.8333 282.862 72.0761C283.106 72.3189 283.5 72.3189 283.743 72.076L290.42 65.4081C290.664 65.1653 290.664 64.7715 290.421 64.5287C290.177 64.2859 289.783 64.2859 289.54 64.5288Z" fill="#E1E4E5"/>
<path d="M288.886 69.3032L286.961 71.2261C286.718 71.469 286.718 71.8627 286.961 72.1056C287.204 72.3484 287.598 72.3483 287.841 72.1054L289.767 70.1825C290.01 69.9397 290.01 69.5459 289.767 69.3031C289.524 69.0603 289.13 69.0603 288.886 69.3032Z" fill="#E1E4E5"/>
<path d="M83.5953 182.251L77.6202 188.217C77.4027 188.434 77.4027 188.787 77.6202 189.004L77.6205 189.004C77.838 189.221 78.1906 189.221 78.4081 189.004L84.3832 183.037C84.6007 182.82 84.6007 182.468 84.3832 182.251L84.3829 182.251C84.1654 182.033 83.8128 182.033 83.5953 182.251Z" fill="#E1E4E5"/>
<path d="M83.0105 186.522L81.2871 188.243C81.0696 188.46 81.0696 188.812 81.2871 189.03L81.2874 189.03C81.5049 189.247 81.8575 189.247 82.075 189.03L83.7984 187.309C84.0159 187.092 84.0159 186.739 83.7984 186.522L83.7981 186.522C83.5806 186.305 83.228 186.305 83.0105 186.522Z" fill="#E1E4E5"/>
<path d="M54.6388 66.2164L66.1893 54.6823C66.61 54.2622 66.61 53.5813 66.1893 53.1612C65.7687 52.7412 65.0868 52.7412 64.6662 53.1612L53.1157 64.6954C52.6951 65.1154 52.6951 65.7964 53.1157 66.2164C53.5363 66.6364 54.2182 66.6364 54.6388 66.2164Z" fill="#E1E4E5"/>
<path d="M55.7699 57.9582L59.1011 54.6317C59.5217 54.2117 59.5217 53.5307 59.1011 53.1107C58.6805 52.6907 57.9985 52.6907 57.5779 53.1107L54.2468 56.4372C53.8262 56.8572 53.8262 57.5382 54.2468 57.9582C54.6674 58.3782 55.3493 58.3782 55.7699 57.9582Z" fill="#E1E4E5"/>
<path d="M284.03 190.288L292.162 182.168C292.458 181.873 292.458 181.393 292.162 181.098C291.866 180.802 291.386 180.802 291.09 181.098L282.958 189.217C282.662 189.513 282.662 189.993 282.958 190.288C283.254 190.584 283.734 190.584 284.03 190.288Z" fill="#E1E4E5"/>
<path d="M284.826 184.475L287.172 182.133C287.468 181.837 287.468 181.358 287.172 181.062C286.876 180.767 286.395 180.767 286.099 181.062L283.754 183.404C283.458 183.7 283.458 184.179 283.754 184.475C284.05 184.771 284.53 184.771 284.826 184.475Z" fill="#E1E4E5"/>
<path fill-rule="evenodd" clip-rule="evenodd" d="M278.547 40.7528H279.842C280.156 40.7528 280.408 41.0073 280.408 41.3175V42.6116C280.408 42.9245 280.153 43.1764 279.842 43.1764H278.547C278.236 43.1764 277.981 42.9218 277.981 42.6116V41.3175C277.981 41.2433 277.995 41.1698 278.024 41.1012C278.052 41.0326 278.094 40.9703 278.146 40.9178C278.199 40.8654 278.261 40.8238 278.33 40.7954C278.399 40.7671 278.472 40.7526 278.547 40.7528ZM283.039 40.7528H284.335C284.646 40.7528 284.901 41.0073 284.901 41.3175V42.6116C284.901 42.9245 284.646 43.1764 284.335 43.1764H283.039C282.729 43.1764 282.474 42.9218 282.474 42.6116V41.3175C282.474 41.0073 282.729 40.7528 283.039 40.7528ZM287.536 40.7528H288.831C289.142 40.7528 289.397 41.0073 289.397 41.3175V42.6116C289.397 42.9245 289.142 43.1764 288.831 43.1764H287.536C287.225 43.1764 286.97 42.9218 286.97 42.6116V41.3175C286.97 41.2433 286.984 41.1698 287.013 41.1012C287.041 41.0326 287.083 40.9703 287.135 40.9178C287.188 40.8654 287.25 40.8238 287.319 40.7954C287.388 40.7671 287.461 40.7526 287.536 40.7528ZM292.029 40.7528H293.325C293.635 40.7528 293.89 41.0073 293.89 41.3175V42.6116C293.89 42.9245 293.635 43.1764 293.325 43.1764H292.029C291.879 43.1763 291.735 43.1168 291.628 43.011C291.522 42.9052 291.461 42.7616 291.46 42.6116V41.3175C291.462 41.1678 291.523 41.0247 291.629 40.919C291.735 40.8134 291.879 40.7537 292.029 40.7528ZM296.522 40.7528H297.818C298.131 40.7528 298.386 41.0073 298.386 41.3175V42.6116C298.386 42.9245 298.131 43.1764 297.818 43.1764H296.522C296.211 43.1764 295.957 42.9218 295.957 42.6116V41.3175C295.957 41.0073 296.211 40.7528 296.522 40.7528ZM283.204 45.6455H284.5C284.811 45.6455 285.066 45.9 285.066 46.2102V47.507C285.066 47.8172 284.811 48.0718 284.5 48.0718H283.204C282.891 48.0718 282.639 47.8172 282.639 47.507V46.213C282.638 46.1385 282.652 46.0648 282.681 45.9959C282.709 45.927 282.75 45.8644 282.803 45.8116C282.856 45.7589 282.918 45.717 282.987 45.6885C283.056 45.66 283.13 45.6453 283.204 45.6455ZM287.698 45.6455H288.993C289.304 45.6455 289.559 45.9 289.559 46.2102V47.507C289.559 47.8172 289.304 48.0718 288.993 48.0718H287.698C287.387 48.0718 287.132 47.8172 287.132 47.507V46.213C287.131 46.1385 287.146 46.0648 287.174 45.9959C287.202 45.927 287.244 45.8644 287.296 45.8116C287.349 45.7589 287.411 45.717 287.48 45.6885C287.549 45.66 287.623 45.6453 287.698 45.6455ZM292.191 45.6455H293.487C293.8 45.6455 294.055 45.9 294.055 46.2102V47.507C294.054 47.6571 293.994 47.8006 293.888 47.9065C293.781 48.0123 293.637 48.0717 293.487 48.0718H292.191C291.88 48.0718 291.625 47.8172 291.625 47.507V46.213C291.625 45.9 291.88 45.6455 292.191 45.6455ZM287.536 35.4966H288.831C289.142 35.4966 289.397 35.7512 289.397 36.0614V37.3558C289.397 37.6684 289.142 37.9206 288.831 37.9206H287.536C287.225 37.9206 286.97 37.666 286.97 37.3558V36.0614C286.97 35.9872 286.984 35.9136 287.013 35.8451C287.041 35.7765 287.083 35.7141 287.135 35.6617C287.188 35.6092 287.25 35.5676 287.319 35.5393C287.388 35.5109 287.461 35.4964 287.536 35.4966ZM292.029 35.4966H293.325C293.635 35.4966 293.89 35.7512 293.89 36.0614V37.3558C293.89 37.6684 293.635 37.9206 293.325 37.9206H292.029C291.879 37.9205 291.735 37.8611 291.628 37.7552C291.522 37.6494 291.461 37.5058 291.46 37.3558V36.0614C291.462 35.9116 291.523 35.7685 291.629 35.6629C291.735 35.5572 291.879 35.4975 292.029 35.4966ZM44.4817 193.323H45.7776C46.091 193.323 46.3432 193.577 46.3432 193.887V195.181C46.3432 195.494 46.0882 195.746 45.7776 195.746H44.4817C44.1711 195.746 43.9161 195.492 43.9161 195.181V193.887C43.916 193.813 43.9305 193.74 43.9588 193.671C43.9872 193.602 44.0289 193.54 44.0814 193.488C44.134 193.435 44.1964 193.394 44.2651 193.365C44.3338 193.337 44.4074 193.322 44.4817 193.323ZM48.9746 193.323H50.2705C50.5815 193.323 50.8365 193.577 50.8365 193.887V195.181C50.8365 195.494 50.5815 195.746 50.2705 195.746H48.9746C48.664 195.746 48.409 195.492 48.409 195.181V193.887C48.409 193.577 48.664 193.323 48.9746 193.323ZM53.4706 193.323H54.7669C55.0776 193.323 55.3325 193.577 55.3325 193.887V195.181C55.3325 195.494 55.0776 195.746 54.7669 195.746H53.4706C53.16 195.746 52.9051 195.492 52.9051 195.181V193.887C52.905 193.813 52.9195 193.74 52.9479 193.671C52.9763 193.603 53.0179 193.54 53.0705 193.488C53.123 193.435 53.1854 193.394 53.2541 193.365C53.3227 193.337 53.3963 193.322 53.4706 193.323ZM57.9639 193.323H59.2598C59.5705 193.323 59.8254 193.577 59.8254 193.887V195.181C59.8254 195.494 59.5705 195.746 59.2598 195.746H57.9639C57.8137 195.746 57.6696 195.687 57.5631 195.581C57.4567 195.475 57.3964 195.331 57.3956 195.181V193.887C57.3973 193.738 57.4577 193.594 57.5641 193.489C57.6704 193.383 57.814 193.324 57.9639 193.323ZM62.4572 193.323H63.7531C64.0665 193.323 64.3215 193.577 64.3215 193.887V195.181C64.3215 195.494 64.0665 195.746 63.7531 195.746H62.4572C62.1466 195.746 61.8917 195.492 61.8917 195.181V193.887C61.8917 193.577 62.1466 193.323 62.4572 193.323ZM49.1397 198.215H50.4356C50.7463 198.215 51.0012 198.47 51.0012 198.78V200.077C51.0012 200.387 50.7463 200.642 50.4356 200.642H49.1397C48.8263 200.642 48.5737 200.387 48.5737 200.077V198.783C48.5734 198.708 48.5878 198.635 48.616 198.566C48.6443 198.497 48.686 198.434 48.7386 198.382C48.7912 198.329 48.8537 198.287 48.9225 198.258C48.9914 198.23 49.0652 198.215 49.1397 198.215ZM53.6326 198.215H54.9285C55.2392 198.215 55.4941 198.47 55.4941 198.78V200.077C55.4941 200.387 55.2392 200.642 54.9285 200.642H53.6326C53.322 200.642 53.067 200.387 53.067 200.077V198.783C53.0666 198.708 53.0809 198.635 53.1091 198.566C53.1373 198.497 53.1789 198.434 53.2315 198.381C53.2841 198.329 53.3466 198.287 53.4154 198.258C53.4843 198.23 53.5581 198.215 53.6326 198.215ZM58.1259 198.215H59.4218C59.7352 198.215 59.9902 198.47 59.9902 198.78V200.077C59.9893 200.227 59.9291 200.37 59.8226 200.476C59.7161 200.582 59.5721 200.642 59.4218 200.642H58.1259C57.8153 200.642 57.5603 200.387 57.5603 200.077V198.783C57.5603 198.47 57.8153 198.215 58.1259 198.215ZM53.471 188.066H54.7669C55.0776 188.066 55.3325 188.321 55.3325 188.632V189.926C55.3325 190.239 55.0776 190.49 54.7669 190.49H53.471C53.16 190.49 52.9051 190.236 52.9051 189.926V188.632C52.9049 188.557 52.9194 188.484 52.9478 188.415C52.9762 188.346 53.0179 188.284 53.0705 188.232C53.1231 188.179 53.1855 188.137 53.2543 188.109C53.323 188.081 53.3967 188.066 53.471 188.066ZM57.9639 188.066H59.2598C59.5705 188.066 59.8254 188.321 59.8254 188.632V189.926C59.8254 190.239 59.5705 190.49 59.2598 190.49H57.9639C57.8137 190.49 57.6696 190.431 57.5631 190.325C57.4567 190.219 57.3964 190.076 57.3956 189.926V188.632C57.3971 188.482 57.4576 188.339 57.5639 188.233C57.6702 188.127 57.8139 188.067 57.9639 188.066Z" fill="#E1E4E5"/>
<path fill-rule="evenodd" clip-rule="evenodd" d="M71.6309 128.153C61.9666 128.153 54.1311 120.218 54.1311 110.431C54.1311 100.645 61.9666 92.7104 71.6309 92.7104C81.2953 92.7104 89.1307 100.645 89.1307 110.431C89.1307 120.218 81.2953 128.153 71.6309 128.153Z" fill="#008DFF"/>
<path d="M78.6811 102.911L71.2885 110.787L66.8501 106.062" stroke="white" stroke-width="7.405" stroke-linecap="round" stroke-linejoin="round"/>
<path d="M63.9026 118.327L71.2952 110.451L75.7336 115.176" stroke="white" stroke-width="7.405" stroke-linecap="round" stroke-linejoin="round"/>
</g>
<defs>
<clipPath id="clip0_2562_59949">
<rect width="353" height="235" fill="white" transform="translate(0.684982 0.5)"/>
</clipPath>
</defs>
</svg>
